<?xml version="1.0" encoding="UTF-8" standalone="no"?>
<svg width="140px" height="115px" viewBox="0 0 140 115" version="1.1" xmlns="http://www.w3.org/2000/svg" xmlns:xlink="http://www.w3.org/1999/xlink" xmlns:sketch="http://www.bohemiancoding.com/sketch/ns">
    <!-- Generator: Sketch 3.3.3 (12081) - http://www.bohemiancoding.com/sketch -->
    <title>checkmark4 copy</title>
    <desc>Created with Sketch.</desc>
    <defs></defs>
    <g id="Page-1" stroke="none" stroke-width="1" fill="none" fill-rule="evenodd" sketch:type="MSPage">
        <g id="checkmark4-copy" sketch:type="MSLayerGroup" transform="translate(0.000000, -1.000000)" fill="#C0392B">
            <path d="M129.619982,0.999999999 C128.381939,0.999999999 128.190532,1.39960853 127.155749,2.03837776 C126.427706,2.38176238 126.256087,2.73415385 125.714674,3.27507692 C92.7993478,36.1495385 64.7973913,63.4227692 35.3504348,89.4793846 L19.8933696,70.728 C18.3929348,68.9076923 16.7206522,68.5255385 15.5842391,68.5255385 C14.2168478,68.5255385 12.8180435,69.0793846 11.7536957,70.0006154 C3.12804348,75.5132308 7.43374742,72.072167 0.558758494,76.8734436 C-1.00542504,77.9658203 3.65621059,82.0930785 6.58828446,85.3524933 C14.4869117,94.1329346 10.1978057,89.5176019 16.4194362,96.586525 C23.221284,104.316371 22.1045433,103.186828 29.8229129,110.329597 C30.0963912,110.586213 33.1440205,113.499485 33.4821727,113.72287 C34.6296727,115.253331 36.0421472,115.600319 37.7199733,115.600319 C38.9136689,115.600319 39.4760497,115.1544 40.5902888,114.3144 C62.1655062,98.0497843 66.1191456,93.304073 80.4786021,79.1274576 C84.6934934,74.9643807 87.4179667,72.0448836 91.6550319,67.885499 C106.493075,53.317499 121.825005,38.2747886 136.339678,22.9849424 C137.134244,22.1504809 139.163524,19.1562802 139.433306,18.0836649 C140.704611,16.1156649 138.912941,13.030911 137.527072,10.9410648 C132.51392,3.39583403 137.622841,11.9296897 133.646319,4.91615125 C132.485884,2.87061279 131.822591,0.999999999 129.619982,0.999999999 Z" id="Shape" sketch:type="MSShapeGroup"></path>
        </g>
    </g>
</svg>